<svg width="1099" height="299" viewBox="0 0 1099 299" fill="none" xmlns="http://www.w3.org/2000/svg">
<path d="M412.715 175.553C400.991 175.553 390.926 173.539 382.518 169.513C374.111 165.369 367.183 159.981 361.736 153.349C356.289 146.6 352.263 139.317 349.658 131.501C347.052 123.686 345.75 116.107 345.75 108.765V104.858C345.75 96.6868 347.052 88.6937 349.658 80.8782C352.381 72.9442 356.467 65.78 361.914 59.3855C367.479 52.991 374.407 47.899 382.696 44.1097C390.985 40.3203 400.695 38.4257 411.826 38.4257C423.668 38.4257 434.148 40.6756 443.266 45.1754C452.503 49.5569 459.904 55.7738 465.469 63.8261C471.035 71.76 474.291 80.9966 475.239 91.5357H442.2C441.371 87.0358 439.595 83.1281 436.872 79.8124C434.148 76.4967 430.655 73.9508 426.392 72.1745C422.129 70.2798 417.274 69.3325 411.826 69.3325C406.734 69.3325 402.116 70.2206 397.972 71.9969C393.945 73.7731 390.511 76.3191 387.669 79.6348C384.946 82.832 382.814 86.7398 381.275 91.3581C379.854 95.9763 379.143 101.187 379.143 106.989C379.143 112.792 379.854 118.002 381.275 122.62C382.814 127.238 385.005 131.205 387.847 134.521C390.807 137.837 394.36 140.383 398.505 142.159C402.649 143.817 407.386 144.646 412.715 144.646C421.004 144.646 427.99 142.633 433.674 138.606C439.477 134.58 442.97 129.192 444.154 122.443H477.193C476.127 132.153 472.87 141.034 467.423 149.086C461.976 157.139 454.634 163.592 445.398 168.447C436.161 173.184 425.267 175.553 412.715 175.553ZM489.228 172V42.3334H521.556V172H489.228ZM478.215 65.78V42.3334H521.556V65.78H478.215ZM599.395 172V143.225H594.066V112.495C594.066 107.996 593 104.68 590.869 102.548C588.856 100.299 585.481 99.1736 580.744 99.1736C578.494 99.1736 575.178 99.2328 570.797 99.3512C566.416 99.4696 561.797 99.6472 556.942 99.8841C552.087 100.121 547.646 100.358 543.62 100.595V73.5955C546.462 73.3587 549.837 73.1218 553.745 72.885C557.653 72.6482 561.679 72.4705 565.823 72.3521C570.087 72.2337 573.994 72.1745 577.547 72.1745C587.612 72.1745 596.138 73.6547 603.125 76.6151C610.23 79.5756 615.618 84.0162 619.289 89.9371C623.078 95.8579 624.973 103.377 624.973 112.495V172H599.395ZM568.31 174.487C561.442 174.487 555.344 173.243 550.015 170.757C544.686 168.27 540.482 164.717 537.403 160.099C534.443 155.362 532.963 149.738 532.963 143.225C532.963 135.883 534.917 129.962 538.824 125.462C542.732 120.844 548.12 117.469 554.988 115.337C561.857 113.206 569.731 112.14 578.613 112.14H597.618V128.837H578.613C574.231 128.837 570.856 129.962 568.488 132.212C566.12 134.343 564.935 137.245 564.935 140.916C564.935 144.468 566.12 147.369 568.488 149.619C570.856 151.751 574.231 152.816 578.613 152.816C581.455 152.816 583.941 152.343 586.073 151.395C588.323 150.33 590.158 148.553 591.579 146.067C593 143.58 593.829 140.146 594.066 135.764L601.526 142.869C600.934 149.619 599.276 155.362 596.553 160.099C593.948 164.717 590.277 168.27 585.54 170.757C580.922 173.243 575.178 174.487 568.31 174.487ZM674.106 175.197C662.974 175.197 654.33 171.586 648.172 164.362C642.133 157.02 639.113 145.83 639.113 130.791V73.9508H671.441V131.679C671.441 136.06 672.744 139.613 675.349 142.337C677.954 145.06 681.447 146.422 685.829 146.422C690.21 146.422 693.763 145.06 696.486 142.337C699.21 139.613 700.572 135.942 700.572 131.324V73.9508H732.9V172H707.322V130.791H709.098C709.098 140.856 707.795 149.205 705.19 155.836C702.703 162.349 698.973 167.204 694 170.401C689.026 173.599 682.868 175.197 675.527 175.197H674.106ZM791.763 175.197C784.895 175.197 778.619 173.954 772.935 171.467C767.369 168.98 762.514 165.546 758.369 161.165C754.343 156.665 751.205 151.395 748.955 145.356C746.824 139.317 745.758 132.745 745.758 125.64V121.377C745.758 114.272 746.765 107.7 748.778 101.66C750.909 95.5026 753.929 90.1739 757.837 85.674C761.744 81.0558 766.481 77.5033 772.047 75.0165C777.612 72.4113 783.829 71.1088 790.697 71.1088C798.631 71.1088 805.381 72.885 810.947 76.4375C816.631 79.8716 820.953 84.9043 823.913 91.5357C826.992 98.167 828.65 106.219 828.887 115.693L821.426 110.186V42.3334H853.754V172H828.176V132.212H831.729C831.492 140.975 829.716 148.613 826.4 155.126C823.084 161.52 818.466 166.494 812.545 170.046C806.743 173.48 799.815 175.197 791.763 175.197ZM800.467 148.553C804.374 148.553 807.927 147.665 811.124 145.889C814.44 144.113 817.104 141.508 819.117 138.074C821.13 134.639 822.137 130.495 822.137 125.64V119.6C822.137 114.864 821.071 110.897 818.94 107.7C816.927 104.502 814.262 102.075 810.947 100.417C807.749 98.6407 804.256 97.7526 800.467 97.7526C796.204 97.7526 792.355 98.8775 788.921 101.127C785.605 103.259 782.941 106.279 780.928 110.186C779.033 113.976 778.086 118.416 778.086 123.508C778.086 128.6 779.033 133.041 780.928 136.83C782.941 140.501 785.605 143.402 788.921 145.534C792.355 147.547 796.204 148.553 800.467 148.553ZM917.878 175.553C909.589 175.553 902.247 174.132 895.853 171.289C889.458 168.447 884.07 164.599 879.689 159.744C875.308 154.889 871.933 149.442 869.564 143.402C867.314 137.363 866.189 131.146 866.189 124.752V121.199C866.189 114.568 867.314 108.232 869.564 102.193C871.933 96.0355 875.248 90.5883 879.511 85.8517C883.893 81.115 889.222 77.3848 895.498 74.6613C901.774 71.8193 908.879 70.3983 916.813 70.3983C927.352 70.3983 936.292 72.7666 943.634 77.5033C950.976 82.2399 956.601 88.516 960.509 96.3316C964.416 104.029 966.37 112.436 966.37 121.554V131.857H879.689V114.449H947.72L936.529 122.265C936.529 116.699 935.759 112.022 934.22 108.232C932.799 104.325 930.608 101.364 927.648 99.3512C924.806 97.3381 921.194 96.3316 916.813 96.3316C912.55 96.3316 908.82 97.3381 905.622 99.3512C902.543 101.246 900.175 104.206 898.517 108.232C896.859 112.14 896.031 117.114 896.031 123.153C896.031 128.6 896.8 133.337 898.34 137.363C899.879 141.271 902.247 144.29 905.445 146.422C908.642 148.553 912.787 149.619 917.878 149.619C922.378 149.619 926.049 148.849 928.891 147.31C931.852 145.771 933.924 143.698 935.108 141.093H964.594C963.173 147.725 960.331 153.645 956.068 158.856C951.923 164.066 946.595 168.151 940.082 171.112C933.687 174.072 926.286 175.553 917.878 175.553ZM1036 156.369V65.4247H1064.78V156.369H1036ZM1005.1 124.041V97.7526H1095.69V124.041H1005.1Z" fill="white"/>
<path d="M375.439 266.519C370.222 266.519 365.74 265.658 361.992 263.936C358.245 262.164 355.18 259.859 352.8 257.023C350.42 254.187 348.672 251.098 347.558 247.755C346.444 244.412 345.887 241.146 345.887 237.955V236.284C345.887 232.84 346.469 229.446 347.634 226.104C348.799 222.71 350.546 219.646 352.876 216.911C355.256 214.176 358.219 211.999 361.764 210.378C365.31 208.707 369.463 207.871 374.223 207.871C379.339 207.871 383.846 208.808 387.746 210.682C391.696 212.556 394.862 215.164 397.242 218.507C399.622 221.799 401.015 225.623 401.42 229.978H387.29C386.986 228.307 386.252 226.813 385.087 225.496C383.922 224.128 382.403 223.065 380.529 222.305C378.706 221.495 376.604 221.09 374.223 221.09C371.944 221.09 369.918 221.495 368.146 222.305C366.424 223.065 364.955 224.179 363.74 225.648C362.575 227.066 361.688 228.763 361.081 230.738C360.473 232.713 360.169 234.865 360.169 237.195C360.169 239.525 360.498 241.703 361.157 243.729C361.815 245.704 362.777 247.451 364.044 248.97C365.31 250.439 366.905 251.579 368.83 252.389C370.754 253.199 372.957 253.605 375.439 253.605C378.579 253.605 381.289 252.946 383.568 251.629C385.847 250.313 387.442 248.565 388.354 246.388L387.29 254.744V242.665H400.205V254.06C397.875 258.061 394.558 261.151 390.253 263.329C385.999 265.456 381.061 266.519 375.439 266.519ZM373.92 245.4V235.524H404.763V245.4H373.92ZM428.694 266.519C425.149 266.519 422.009 265.912 419.274 264.696C416.539 263.481 414.235 261.835 412.361 259.758C410.487 257.682 409.043 255.352 408.03 252.769C407.068 250.186 406.587 247.527 406.587 244.792V243.273C406.587 240.437 407.068 237.727 408.03 235.144C409.043 232.51 410.461 230.181 412.285 228.155C414.159 226.129 416.438 224.534 419.122 223.369C421.806 222.153 424.845 221.546 428.238 221.546C432.746 221.546 436.57 222.558 439.71 224.584C442.85 226.61 445.255 229.294 446.927 232.637C448.598 235.929 449.434 239.525 449.434 243.425V247.831H412.361V240.386H441.457L436.671 243.729C436.671 241.348 436.342 239.348 435.683 237.727C435.075 236.056 434.139 234.79 432.872 233.929C431.657 233.068 430.112 232.637 428.238 232.637C426.415 232.637 424.82 233.068 423.452 233.929C422.135 234.739 421.122 236.005 420.413 237.727C419.704 239.398 419.35 241.525 419.35 244.108C419.35 246.438 419.679 248.464 420.337 250.186C420.996 251.857 422.009 253.149 423.376 254.06C424.744 254.972 426.516 255.428 428.694 255.428C430.619 255.428 432.189 255.099 433.404 254.44C434.67 253.782 435.557 252.896 436.063 251.781H448.674C448.066 254.618 446.851 257.15 445.027 259.378C443.255 261.607 440.976 263.354 438.19 264.62C435.455 265.886 432.29 266.519 428.694 266.519ZM471.08 266.367C465.002 266.367 460.216 265.127 456.721 262.645C453.227 260.113 451.353 256.567 451.1 252.009H463.255C463.457 253.275 464.242 254.364 465.61 255.276C466.977 256.188 468.902 256.643 471.383 256.643C473.156 256.643 474.675 256.39 475.942 255.884C477.258 255.327 477.917 254.44 477.917 253.225C477.917 252.161 477.41 251.3 476.397 250.642C475.385 249.933 473.536 249.452 470.852 249.198L467.965 248.894C462.596 248.337 458.646 246.869 456.114 244.488C453.581 242.108 452.315 239.12 452.315 235.524C452.315 232.434 453.075 229.902 454.594 227.927C456.114 225.901 458.215 224.382 460.9 223.369C463.584 222.356 466.648 221.849 470.092 221.849C475.714 221.849 480.247 223.09 483.691 225.572C487.134 228.003 488.958 231.523 489.16 236.132H477.005C476.803 234.865 476.119 233.802 474.954 232.941C473.789 232.029 472.118 231.573 469.94 231.573C468.37 231.573 467.079 231.852 466.066 232.409C465.103 232.966 464.622 233.751 464.622 234.764C464.622 235.828 465.078 236.613 465.99 237.119C466.952 237.626 468.471 238.006 470.548 238.259L473.435 238.563C478.803 239.12 482.931 240.614 485.818 243.045C488.755 245.425 490.224 248.565 490.224 252.465C490.224 255.352 489.439 257.834 487.869 259.91C486.349 261.987 484.146 263.582 481.259 264.696C478.423 265.81 475.03 266.367 471.08 266.367ZM514.802 265.608C510.244 265.608 506.597 265.051 503.862 263.936C501.178 262.822 499.228 260.974 498.013 258.391C496.797 255.808 496.189 252.313 496.189 247.907L496.265 212.125H509.028L508.952 248.287C508.952 250.161 509.433 251.604 510.396 252.617C511.408 253.579 512.852 254.06 514.726 254.06H520.499V265.608H514.802ZM490.112 233.093V223.065H520.499V233.093H490.112ZM546.374 266.519C542.677 266.519 539.385 265.962 536.498 264.848C533.611 263.734 531.155 262.189 529.129 260.214C527.154 258.239 525.634 255.96 524.571 253.377C523.558 250.794 523.052 248.034 523.052 245.096V243.273C523.052 240.234 523.583 237.398 524.647 234.764C525.761 232.131 527.331 229.826 529.357 227.851C531.383 225.876 533.839 224.331 536.726 223.217C539.613 222.103 542.829 221.546 546.374 221.546C549.97 221.546 553.186 222.103 556.022 223.217C558.909 224.331 561.365 225.876 563.391 227.851C565.417 229.826 566.962 232.131 568.025 234.764C569.14 237.398 569.697 240.234 569.697 243.273V245.096C569.697 248.034 569.165 250.794 568.101 253.377C567.088 255.96 565.569 258.239 563.543 260.214C561.568 262.189 559.137 263.734 556.25 264.848C553.363 265.962 550.071 266.519 546.374 266.519ZM546.374 254.972C548.501 254.972 550.249 254.516 551.616 253.605C553.034 252.693 554.098 251.427 554.807 249.806C555.516 248.135 555.87 246.261 555.87 244.184C555.87 242.007 555.49 240.107 554.731 238.487C554.022 236.815 552.958 235.499 551.54 234.536C550.122 233.574 548.4 233.093 546.374 233.093C544.348 233.093 542.626 233.574 541.208 234.536C539.79 235.499 538.701 236.815 537.942 238.487C537.232 240.107 536.878 242.007 536.878 244.184C536.878 246.261 537.232 248.135 537.942 249.806C538.651 251.427 539.714 252.693 541.132 253.605C542.55 254.516 544.298 254.972 546.374 254.972ZM574.987 265V223.065H585.927V241.298H585.775C585.775 235.423 586.99 230.814 589.421 227.471C591.903 224.128 595.448 222.457 600.057 222.457H601.728V234.308H598.538C595.448 234.308 593.043 235.144 591.321 236.815C589.649 238.487 588.814 240.892 588.814 244.032V265H574.987ZM624.434 266.519C620.889 266.519 617.749 265.912 615.014 264.696C612.279 263.481 609.974 261.835 608.1 259.758C606.227 257.682 604.783 255.352 603.77 252.769C602.808 250.186 602.327 247.527 602.327 244.792V243.273C602.327 240.437 602.808 237.727 603.77 235.144C604.783 232.51 606.201 230.181 608.024 228.155C609.898 226.129 612.177 224.534 614.862 223.369C617.546 222.153 620.585 221.546 623.978 221.546C628.486 221.546 632.309 222.558 635.449 224.584C638.589 226.61 640.995 229.294 642.666 232.637C644.338 235.929 645.173 239.525 645.173 243.425V247.831H608.1V240.386H637.197L632.411 243.729C632.411 241.348 632.081 239.348 631.423 237.727C630.815 236.056 629.878 234.79 628.612 233.929C627.397 233.068 625.852 232.637 623.978 232.637C622.155 232.637 620.559 233.068 619.192 233.929C617.875 234.739 616.862 236.005 616.153 237.727C615.444 239.398 615.09 241.525 615.09 244.108C615.09 246.438 615.419 248.464 616.077 250.186C616.736 251.857 617.749 253.149 619.116 254.06C620.483 254.972 622.256 255.428 624.434 255.428C626.358 255.428 627.928 255.099 629.144 254.44C630.41 253.782 631.296 252.896 631.803 251.781H644.414C643.806 254.618 642.591 257.15 640.767 259.378C638.995 261.607 636.716 263.354 633.93 264.62C631.195 265.886 628.03 266.519 624.434 266.519ZM666.819 266.367C660.742 266.367 655.956 265.127 652.461 262.645C648.967 260.113 647.093 256.567 646.839 252.009H658.995C659.197 253.275 659.982 254.364 661.35 255.276C662.717 256.188 664.642 256.643 667.123 256.643C668.896 256.643 670.415 256.39 671.681 255.884C672.998 255.327 673.657 254.44 673.657 253.225C673.657 252.161 673.15 251.3 672.137 250.642C671.124 249.933 669.276 249.452 666.591 249.198L663.705 248.894C658.336 248.337 654.386 246.869 651.853 244.488C649.321 242.108 648.055 239.12 648.055 235.524C648.055 232.434 648.815 229.902 650.334 227.927C651.853 225.901 653.955 224.382 656.639 223.369C659.324 222.356 662.388 221.849 665.832 221.849C671.454 221.849 675.986 223.09 679.43 225.572C682.874 228.003 684.698 231.523 684.9 236.132H672.745C672.542 234.865 671.859 233.802 670.694 232.941C669.529 232.029 667.858 231.573 665.68 231.573C664.11 231.573 662.818 231.852 661.805 232.409C660.843 232.966 660.362 233.751 660.362 234.764C660.362 235.828 660.818 236.613 661.729 237.119C662.692 237.626 664.211 238.006 666.288 238.259L669.174 238.563C674.543 239.12 678.671 240.614 681.557 243.045C684.495 245.425 685.964 248.565 685.964 252.465C685.964 255.352 685.179 257.834 683.609 259.91C682.089 261.987 679.886 263.582 676.999 264.696C674.163 265.81 670.77 266.367 666.819 266.367ZM721.033 266.367C718.096 266.367 715.411 265.836 712.98 264.772C710.6 263.709 708.523 262.24 706.751 260.366C705.029 258.441 703.687 256.188 702.724 253.605C701.813 251.022 701.357 248.211 701.357 245.172V243.349C701.357 240.31 701.787 237.499 702.648 234.916C703.56 232.283 704.852 230.003 706.523 228.079C708.194 226.104 710.22 224.584 712.6 223.521C714.981 222.407 717.64 221.849 720.577 221.849C723.971 221.849 726.857 222.609 729.238 224.128C731.669 225.597 733.517 227.75 734.783 230.586C736.1 233.422 736.809 236.866 736.911 240.918L733.72 238.563V209.542H747.546V265H736.607V247.983H738.126C738.025 251.731 737.265 254.997 735.847 257.783C734.429 260.518 732.454 262.645 729.921 264.164C727.44 265.633 724.477 266.367 721.033 266.367ZM724.756 254.972C726.427 254.972 727.946 254.592 729.314 253.833C730.732 253.073 731.871 251.959 732.732 250.49C733.593 249.021 734.024 247.248 734.024 245.172V242.589C734.024 240.563 733.568 238.867 732.656 237.499C731.795 236.132 730.656 235.093 729.238 234.384C727.87 233.625 726.376 233.245 724.756 233.245C722.932 233.245 721.286 233.726 719.818 234.688C718.399 235.6 717.26 236.891 716.399 238.563C715.589 240.183 715.183 242.083 715.183 244.26C715.183 246.438 715.589 248.337 716.399 249.958C717.26 251.528 718.399 252.769 719.818 253.681C721.286 254.542 722.932 254.972 724.756 254.972ZM774.972 266.519C771.427 266.519 768.287 265.912 765.552 264.696C762.817 263.481 760.512 261.835 758.638 259.758C756.765 257.682 755.321 255.352 754.308 252.769C753.346 250.186 752.865 247.527 752.865 244.792V243.273C752.865 240.437 753.346 237.727 754.308 235.144C755.321 232.51 756.739 230.181 758.562 228.155C760.436 226.129 762.715 224.534 765.4 223.369C768.084 222.153 771.123 221.546 774.516 221.546C779.024 221.546 782.847 222.558 785.987 224.584C789.127 226.61 791.533 229.294 793.205 232.637C794.876 235.929 795.712 239.525 795.712 243.425V247.831H758.638V240.386H787.735L782.949 243.729C782.949 241.348 782.619 239.348 781.961 237.727C781.353 236.056 780.416 234.79 779.15 233.929C777.935 233.068 776.39 232.637 774.516 232.637C772.693 232.637 771.097 233.068 769.73 233.929C768.413 234.739 767.4 236.005 766.691 237.727C765.982 239.398 765.628 241.525 765.628 244.108C765.628 246.438 765.957 248.464 766.615 250.186C767.274 251.857 768.287 253.149 769.654 254.06C771.021 254.972 772.794 255.428 774.972 255.428C776.896 255.428 778.466 255.099 779.682 254.44C780.948 253.782 781.834 252.896 782.341 251.781H794.952C794.344 254.618 793.129 257.15 791.305 259.378C789.533 261.607 787.254 263.354 784.468 264.62C781.733 265.886 778.568 266.519 774.972 266.519ZM825.646 265V220.33H839.776V265H825.646ZM810.452 221.849V209.542H854.97V221.849H810.452ZM856.626 265V223.065H867.565V241.298H867.414C867.414 235.423 868.629 230.814 871.06 227.471C873.542 224.128 877.087 222.457 881.696 222.457H883.367V234.308H880.176C877.087 234.308 874.681 235.144 872.959 236.815C871.288 238.487 870.452 240.892 870.452 244.032V265H856.626ZM911.622 265V252.693H909.343V239.55C909.343 237.626 908.887 236.208 907.975 235.296C907.114 234.334 905.671 233.853 903.645 233.853C902.683 233.853 901.265 233.878 899.391 233.929C897.517 233.979 895.542 234.055 893.465 234.156C891.389 234.258 889.489 234.359 887.767 234.46V222.913C888.983 222.812 890.426 222.71 892.098 222.609C893.769 222.508 895.491 222.432 897.264 222.381C899.087 222.331 900.758 222.305 902.278 222.305C906.582 222.305 910.229 222.938 913.217 224.204C916.256 225.471 918.56 227.37 920.13 229.902C921.751 232.434 922.561 235.651 922.561 239.55V265H911.622ZM898.327 266.064C895.39 266.064 892.781 265.532 890.502 264.468C888.223 263.405 886.425 261.885 885.108 259.91C883.842 257.884 883.209 255.479 883.209 252.693C883.209 249.553 884.045 247.021 885.716 245.096C887.388 243.121 889.692 241.677 892.629 240.766C895.567 239.854 898.935 239.398 902.733 239.398H910.862V246.539H902.733C900.859 246.539 899.416 247.021 898.403 247.983C897.39 248.894 896.884 250.135 896.884 251.705C896.884 253.225 897.39 254.466 898.403 255.428C899.416 256.339 900.859 256.795 902.733 256.795C903.949 256.795 905.012 256.593 905.924 256.188C906.886 255.732 907.671 254.972 908.279 253.908C908.887 252.845 909.241 251.376 909.343 249.502L912.533 252.541C912.28 255.428 911.571 257.884 910.406 259.91C909.292 261.885 907.722 263.405 905.696 264.468C903.721 265.532 901.265 266.064 898.327 266.064ZM896.808 218.507L903.645 202.401H917.775L908.963 218.507H896.808ZM930.433 265V223.217C930.433 218.304 931.851 214.658 934.687 212.277C937.523 209.846 941.727 208.631 947.298 208.631H952.692V218.811H946.994C945.778 218.811 944.841 219.14 944.183 219.798C943.525 220.457 943.195 221.394 943.195 222.609V265H930.433ZM925.722 234.004V223.977H953.299V234.004H925.722ZM975.851 266.519C972.306 266.519 969.166 265.912 966.431 264.696C963.696 263.481 961.392 261.835 959.518 259.758C957.644 257.682 956.201 255.352 955.188 252.769C954.226 250.186 953.744 247.527 953.744 244.792V243.273C953.744 240.437 954.226 237.727 955.188 235.144C956.201 232.51 957.619 230.181 959.442 228.155C961.316 226.129 963.595 224.534 966.279 223.369C968.964 222.153 972.002 221.546 975.396 221.546C979.903 221.546 983.727 222.558 986.867 224.584C990.007 226.61 992.413 229.294 994.084 232.637C995.755 235.929 996.591 239.525 996.591 243.425V247.831H959.518V240.386H988.614L983.828 243.729C983.828 241.348 983.499 239.348 982.841 237.727C982.233 236.056 981.296 234.79 980.03 233.929C978.814 233.068 977.27 232.637 975.396 232.637C973.572 232.637 971.977 233.068 970.61 233.929C969.293 234.739 968.28 236.005 967.571 237.727C966.862 239.398 966.507 241.525 966.507 244.108C966.507 246.438 966.836 248.464 967.495 250.186C968.153 251.857 969.166 253.149 970.534 254.06C971.901 254.972 973.674 255.428 975.851 255.428C977.776 255.428 979.346 255.099 980.562 254.44C981.828 253.782 982.714 252.896 983.221 251.781H995.831C995.224 254.618 994.008 257.15 992.185 259.378C990.412 261.607 988.133 263.354 985.348 264.62C982.613 265.886 979.447 266.519 975.851 266.519ZM1018.39 281.789C1016.31 281.789 1014.16 281.713 1011.93 281.561C1009.75 281.409 1007.78 281.207 1006.01 280.954V269.406C1007.78 269.609 1009.75 269.786 1011.93 269.938C1014.11 270.141 1016.11 270.242 1017.93 270.242C1021.07 270.242 1023.63 269.913 1025.61 269.254C1027.63 268.596 1029.13 267.583 1030.09 266.216C1031.05 264.848 1031.53 263.101 1031.53 260.974V252.465L1033.66 247.907C1033.56 251.452 1032.87 254.542 1031.61 257.175C1030.34 259.758 1028.52 261.759 1026.14 263.177C1023.81 264.595 1020.97 265.304 1017.63 265.304C1014.79 265.304 1012.24 264.797 1009.96 263.784C1007.68 262.772 1005.73 261.353 1004.11 259.53C1002.54 257.656 1001.32 255.453 1000.46 252.921C999.599 250.389 999.169 247.628 999.169 244.64V242.817C999.169 239.829 999.625 237.069 1000.54 234.536C1001.45 231.953 1002.76 229.725 1004.49 227.851C1006.21 225.926 1008.23 224.458 1010.56 223.445C1012.94 222.381 1015.58 221.849 1018.46 221.849C1021.81 221.849 1024.69 222.609 1027.13 224.128C1029.56 225.597 1031.46 227.75 1032.82 230.586C1034.19 233.422 1034.92 236.866 1035.03 240.918L1033.51 241.449V223.065H1044.45V260.062C1044.45 265.228 1043.48 269.406 1041.56 272.597C1039.64 275.788 1036.72 278.117 1032.82 279.586C1028.97 281.055 1024.16 281.789 1018.39 281.789ZM1022.26 253.908C1023.93 253.908 1025.43 253.529 1026.75 252.769C1028.11 252.009 1029.2 250.92 1030.01 249.502C1030.82 248.034 1031.23 246.286 1031.23 244.26V242.437C1031.23 240.462 1030.8 238.791 1029.94 237.423C1029.13 236.056 1028.04 235.017 1026.67 234.308C1025.3 233.599 1023.83 233.245 1022.26 233.245C1020.44 233.245 1018.82 233.675 1017.4 234.536C1016.03 235.397 1014.95 236.613 1014.13 238.183C1013.37 239.753 1013 241.601 1013 243.729C1013 245.856 1013.37 247.679 1014.13 249.198C1014.95 250.718 1016.03 251.883 1017.4 252.693C1018.82 253.503 1020.44 253.908 1022.26 253.908ZM1072.66 266.519C1068.97 266.519 1065.67 265.962 1062.79 264.848C1059.9 263.734 1057.44 262.189 1055.42 260.214C1053.44 258.239 1051.92 255.96 1050.86 253.377C1049.85 250.794 1049.34 248.034 1049.34 245.096V243.273C1049.34 240.234 1049.87 237.398 1050.94 234.764C1052.05 232.131 1053.62 229.826 1055.65 227.851C1057.67 225.876 1060.13 224.331 1063.02 223.217C1065.9 222.103 1069.12 221.546 1072.66 221.546C1076.26 221.546 1079.48 222.103 1082.31 223.217C1085.2 224.331 1087.66 225.876 1089.68 227.851C1091.71 229.826 1093.25 232.131 1094.32 234.764C1095.43 237.398 1095.99 240.234 1095.99 243.273V245.096C1095.99 248.034 1095.45 250.794 1094.39 253.377C1093.38 255.96 1091.86 258.239 1089.83 260.214C1087.86 262.189 1085.43 263.734 1082.54 264.848C1079.65 265.962 1076.36 266.519 1072.66 266.519ZM1072.66 254.972C1074.79 254.972 1076.54 254.516 1077.91 253.605C1079.32 252.693 1080.39 251.427 1081.1 249.806C1081.81 248.135 1082.16 246.261 1082.16 244.184C1082.16 242.007 1081.78 240.107 1081.02 238.487C1080.31 236.815 1079.25 235.499 1077.83 234.536C1076.41 233.574 1074.69 233.093 1072.66 233.093C1070.64 233.093 1068.92 233.574 1067.5 234.536C1066.08 235.499 1064.99 236.815 1064.23 238.487C1063.52 240.107 1063.17 242.007 1063.17 244.184C1063.17 246.261 1063.52 248.135 1064.23 249.806C1064.94 251.427 1066 252.693 1067.42 253.605C1068.84 254.516 1070.59 254.972 1072.66 254.972Z" fill="white"/>
<rect y="2.5" width="296" height="296" rx="24.6667" fill="url(#paint0_linear_4_14)"/>
<path d="M82.606 184.748L124.519 161.368L125.157 159.242L124.519 158.18H122.392L115.371 157.754L91.5418 157.117L70.6916 156.054L50.4796 154.991L45.3735 153.929L40.9056 147.552L41.3311 144.364L45.5862 141.601L51.7562 142.026L65.1599 143.089L85.3718 144.364L100.052 145.214L121.753 147.765H125.157L125.583 146.277L124.519 145.427L123.668 144.577L102.605 130.549L80.0529 115.671L68.1385 106.956L61.7558 102.705L58.5644 98.4546L57.2879 89.5277L63.0323 83.1514L70.9043 83.789L72.8192 84.2141L80.6912 90.3779L97.7117 103.343L119.626 119.922L122.817 122.472L124.094 121.622L124.306 120.984L122.817 118.646L111.115 96.5417L98.35 74.4371L92.6056 65.2977L91.1163 59.7715C90.478 57.6461 90.2652 55.5206 90.2652 53.3952L96.648 44.4683L100.478 43.4056L109.413 44.6808L112.818 47.6565L118.349 60.4091L127.072 80.1758L140.901 106.956L145.157 115.033L147.284 122.26L147.922 124.385H149.412V123.322L150.476 108.019L152.603 89.5277L154.731 65.7227L155.369 58.9213L158.773 50.8446L165.156 46.5937L170.687 48.9317L174.943 55.0955L174.304 58.9213L171.964 75.2872L166.432 101.005L163.241 118.434H165.156L167.283 116.096L176.006 104.618L190.687 86.3396L197.069 78.9005L204.729 71.0364L209.622 67.2106H218.771L225.366 77.2001L222.387 87.6148L213.026 99.5173L205.154 109.507L193.878 124.598L187.07 136.713L187.708 137.563H189.197L214.728 132.037L228.345 129.699L244.514 126.936L251.961 130.336L252.812 133.737L249.833 140.963L232.387 145.214L211.962 149.465L181.538 156.479L181.113 156.692L181.538 157.329L195.155 158.605L201.112 159.03H215.579L242.387 161.155L249.408 165.406L253.45 171.145L252.812 175.396L241.961 180.922L227.494 177.521L193.452 169.444L181.964 166.681H180.262V167.532L190.048 177.096L207.707 193.037L230.259 213.654L231.323 218.755L228.557 223.006L225.579 222.581L206.005 207.702L198.346 201.326L181.325 186.873H180.262V188.361L184.091 194.1L204.941 225.344L206.005 234.908L204.516 237.884L198.984 240.009L193.24 238.734L180.9 221.73L168.134 202.601L158.135 185.173L157.071 186.023L150.901 250.211L148.135 253.399L141.752 255.95L136.434 251.699L133.455 245.323L136.434 232.145L139.838 215.141L142.604 201.539L145.157 184.748L146.646 179.221V178.796H145.157L132.391 196.438L113.243 222.581L97.9245 238.734L94.3076 240.222L87.9249 237.034L88.5632 231.082L91.9673 226.194L113.243 198.988L126.008 182.197L134.519 172.42L134.306 171.357H133.668L77.4998 207.915L67.5002 209.19L63.2451 204.939L63.6706 198.563L65.7982 196.438L82.8187 184.748H82.606Z" fill="#FAF9F5"/>
<defs>
<linearGradient id="paint0_linear_4_14" x1="296" y1="1.99997" x2="-230.5" y2="510" gradientUnits="userSpaceOnUse">
<stop offset="0.0691015" stop-color="#DE7356"/>
<stop offset="1" stop-color="#FF0000"/>
</linearGradient>
</defs>
</svg>
