<svg width="262" height="174" viewBox="0 0 262 174" fill="none" xmlns="http://www.w3.org/2000/svg">
<g clip-path="url(#clip0_29_5)">
<path d="M44.5395 -0.20787C64.4323 0.0408795 84.9503 -0.210121 104.889 -0.224121L222.945 -0.194374C222.7 3.73263 222.87 9.78238 222.87 13.8411L222.948 41.9746C235.623 41.9024 249.475 42.1489 262.015 41.8541C261.793 46.0116 261.925 51.5236 261.913 55.7561C261.893 65.7899 261.927 75.8239 262.017 85.8571C248.962 85.9481 235.905 85.9146 222.85 85.7566L222.825 145C222.83 154.988 222.64 165.495 222.968 175.438C214.69 175.315 205.255 175.165 197.02 175.448L197.015 128.781L175.69 128.801C176.071 144.253 175.488 159.875 175.775 175.458L170.813 175.363C164.98 175.278 159.146 175.3 153.314 175.428C153.005 159.875 153.036 144.318 153.408 128.766C139.167 128.842 124.652 128.908 110.419 128.76C110.79 143.958 110.472 160.098 110.566 175.425C103.096 175.288 95.6235 175.293 88.1535 175.44C87.8983 169.49 88.311 163.175 88.21 157.168C88.0513 147.723 87.8778 138.203 88.1375 128.764C80.9538 128.751 74.03 128.87 66.7733 128.776C66.9745 144.283 66.6565 159.868 66.8 175.423C60.0838 175.15 51.2163 175.17 44.5233 175.403L44.509 85.8106L1.01626 85.9156C0.740014 71.5859 1.03326 56.2984 0.955763 41.8506C2.39676 42.0006 4.28902 41.8546 5.77302 41.8589C18.7165 41.8964 31.7088 41.6919 44.648 41.8544C44.3525 37.4799 44.5615 30.8056 44.581 26.2824C44.647 17.4524 44.6333 8.62188 44.5395 -0.20787Z" fill="#D97659"/>
<path d="M75.4017 19.866C80.0412 19.7488 85.0922 19.8805 89.7572 19.9243C89.6499 27.242 89.8064 34.5675 89.6959 41.9208L82.8124 41.8708C77.7122 41.8728 72.6122 41.912 67.5127 41.9888C67.6394 34.7688 67.5079 27.1928 67.5439 19.9255C70.1419 19.996 72.7992 19.9125 75.4017 19.866Z" fill="black"/>
<path d="M175.982 19.824C182.985 20.045 190.817 19.8142 197.92 19.8285C197.837 22.7707 198.392 40.8642 197.68 41.994C192.03 41.653 181.617 41.7325 175.943 41.9267C176.04 34.5792 175.852 27.2785 175.982 19.824Z" fill="black"/>
</g>
<defs>
<clipPath id="clip0_29_5">
<rect width="262" height="174" fill="white"/>
</clipPath>
</defs>
</svg>
