<svg width="935" height="481" viewBox="0 0 935 481" fill="none" xmlns="http://www.w3.org/2000/svg">
<rect x="192.856" width="549.287" height="119.881" rx="59.9404" fill="#2E11E7"/>
<g clip-path="url(#clip0_61_13)">
<path d="M256.919 36.4248C252.46 40.8843 250.758 47.4929 252.46 53.5284L230.144 75.8438C229.804 76.1841 229.589 76.6676 229.589 77.1691L229.517 86.6612C229.499 87.7 230.413 88.6134 231.452 88.5775L240.926 88.5059C241.982 88.5059 242.824 87.6462 242.824 86.5896V82.2196H247.212C247.713 82.2196 248.233 81.9868 248.591 81.6286C248.949 81.2704 249.146 80.7869 249.146 80.2674V75.8617L253.534 75.8796C254.573 75.8975 255.468 75.002 255.45 73.9632V69.5575H259.874C260.376 69.5575 260.859 69.3426 261.217 69.0023L264.566 65.6533C281.831 70.3813 294.296 49.2123 281.688 36.4248C274.864 29.5833 263.743 29.5833 256.919 36.4248ZM271.086 41.5648C274.721 38.0545 280.058 43.3737 276.53 47.0273C272.894 50.5376 267.557 45.2184 271.086 41.5648Z" fill="white"/>
</g>
<path d="M317.453 79.4404V72.47L337.465 47.2867L337.746 48.2985L335.835 45.8252L337.128 46.9494H318.24V38.4051H350.45V45.3755L330.382 70.5588L330.101 69.4908L332.012 72.0203L330.72 70.8961H350.225V79.4404H317.453ZM369.041 80.5647C366.305 80.5647 363.869 80.1525 361.733 79.328C359.597 78.5035 357.78 77.3606 356.281 75.899C354.819 74.4375 353.695 72.7511 352.908 70.8399C352.158 68.9286 351.784 66.8862 351.784 64.7127V63.3636C351.784 61.115 352.177 59.0164 352.964 57.0677C353.789 55.119 354.95 53.4139 356.449 51.9524C357.948 50.4908 359.766 49.3478 361.902 48.5234C364.038 47.6989 366.418 47.2867 369.041 47.2867C371.702 47.2867 374.081 47.6989 376.18 48.5234C378.316 49.3478 380.134 50.4908 381.633 51.9524C383.132 53.4139 384.275 55.119 385.062 57.0677C385.886 59.0164 386.298 61.115 386.298 63.3636V64.7127C386.298 66.8862 385.905 68.9286 385.118 70.8399C384.368 72.7511 383.244 74.4375 381.745 75.899C380.283 77.3606 378.485 78.5035 376.349 79.328C374.212 80.1525 371.777 80.5647 369.041 80.5647ZM369.041 72.0203C370.615 72.0203 371.908 71.6831 372.92 71.0085C373.969 70.334 374.756 69.3971 375.281 68.1979C375.805 66.9612 376.068 65.5746 376.068 64.0381C376.068 62.4267 375.786 61.0214 375.224 59.8222C374.7 58.5855 373.913 57.6111 372.863 56.8991C371.814 56.1871 370.54 55.831 369.041 55.831C367.542 55.831 366.268 56.1871 365.218 56.8991C364.169 57.6111 363.363 58.5855 362.801 59.8222C362.277 61.0214 362.014 62.4267 362.014 64.0381C362.014 65.5746 362.277 66.9612 362.801 68.1979C363.326 69.3971 364.113 70.334 365.162 71.0085C366.212 71.6831 367.504 72.0203 369.041 72.0203ZM405.671 80.5647C402.936 80.5647 400.5 80.1525 398.364 79.328C396.228 78.5035 394.41 77.3606 392.911 75.899C391.45 74.4375 390.325 72.7511 389.538 70.8399C388.789 68.9286 388.414 66.8862 388.414 64.7127V63.3636C388.414 61.115 388.808 59.0164 389.595 57.0677C390.419 55.119 391.581 53.4139 393.08 51.9524C394.579 50.4908 396.396 49.3478 398.532 48.5234C400.669 47.6989 403.048 47.2867 405.671 47.2867C408.332 47.2867 410.712 47.6989 412.811 48.5234C414.947 49.3478 416.764 50.4908 418.263 51.9524C419.762 53.4139 420.905 55.119 421.692 57.0677C422.517 59.0164 422.929 61.115 422.929 63.3636V64.7127C422.929 66.8862 422.535 68.9286 421.748 70.8399C420.999 72.7511 419.875 74.4375 418.376 75.899C416.914 77.3606 415.115 78.5035 412.979 79.328C410.843 80.1525 408.407 80.5647 405.671 80.5647ZM405.671 72.0203C407.245 72.0203 408.538 71.6831 409.55 71.0085C410.599 70.334 411.386 69.3971 411.911 68.1979C412.436 66.9612 412.698 65.5746 412.698 64.0381C412.698 62.4267 412.417 61.0214 411.855 59.8222C411.33 58.5855 410.543 57.6111 409.494 56.8991C408.445 56.1871 407.17 55.831 405.671 55.831C404.172 55.831 402.898 56.1871 401.849 56.8991C400.8 57.6111 399.994 58.5855 399.432 59.8222C398.907 61.0214 398.645 62.4267 398.645 64.0381C398.645 65.5746 398.907 66.9612 399.432 68.1979C399.957 69.3971 400.743 70.334 401.793 71.0085C402.842 71.6831 404.135 72.0203 405.671 72.0203ZM426.844 79.4404V48.4109H434.938V61.7896H434.488C434.488 58.5667 434.882 55.906 435.669 53.8074C436.493 51.6713 437.693 50.0786 439.267 49.0293C440.841 47.9425 442.77 47.3991 445.056 47.3991H445.506C447.83 47.3991 449.76 47.9425 451.296 49.0293C452.87 50.0786 454.051 51.6713 454.837 53.8074C455.662 55.906 456.074 58.5667 456.074 61.7896H453.713C453.713 58.5667 454.107 55.906 454.894 53.8074C455.718 51.6713 456.917 50.0786 458.491 49.0293C460.065 47.9425 461.995 47.3991 464.281 47.3991H464.731C467.054 47.3991 469.003 47.9425 470.577 49.0293C472.189 50.0786 473.406 51.6713 474.231 53.8074C475.093 55.906 475.524 58.5667 475.524 61.7896V79.4404H465.293V61.5085C465.293 60.0845 464.9 58.904 464.113 57.9671C463.363 56.9928 462.276 56.5056 460.852 56.5056C459.428 56.5056 458.304 56.9928 457.479 57.9671C456.693 58.904 456.299 60.122 456.299 61.621V79.4404H446.068V61.5085C446.068 60.0845 445.675 58.904 444.888 57.9671C444.138 56.9928 443.052 56.5056 441.627 56.5056C440.203 56.5056 439.079 56.9928 438.255 57.9671C437.468 58.904 437.074 60.122 437.074 61.621V79.4404H426.844ZM505.563 80.5647C501.74 80.5647 498.518 79.9651 495.894 78.7659C493.309 77.5667 491.341 75.9365 489.992 73.8754C488.68 71.7767 488.025 69.3783 488.025 66.6801H498.143C498.143 67.6545 498.405 68.5539 498.93 69.3783C499.492 70.1653 500.316 70.7837 501.403 71.2334C502.49 71.6831 503.877 71.9079 505.563 71.9079C507.025 71.9079 508.261 71.7205 509.273 71.3458C510.322 70.971 511.109 70.4464 511.634 69.7718C512.196 69.0973 512.477 68.2916 512.477 67.3547C512.477 66.1555 511.971 65.2373 510.959 64.6002C509.948 63.9257 508.242 63.4947 505.844 63.3073L503.202 63.0825C498.967 62.7077 495.595 61.3774 493.084 59.0914C490.573 56.8054 489.317 53.7699 489.317 49.9849C489.317 47.2867 489.936 44.982 491.172 43.0707C492.447 41.1595 494.227 39.698 496.513 38.6861C498.799 37.6743 501.497 37.1684 504.607 37.1684C507.98 37.1684 510.828 37.7305 513.152 38.8548C515.513 39.979 517.311 41.5717 518.548 43.6329C519.785 45.6565 520.403 48.0175 520.403 50.7157H510.285C510.285 49.8163 510.06 48.9918 509.61 48.2423C509.161 47.4928 508.505 46.9119 507.643 46.4997C506.818 46.05 505.807 45.8252 504.607 45.8252C503.483 45.8252 502.527 46.0125 501.74 46.3873C500.991 46.7246 500.41 47.2117 499.998 47.8488C499.623 48.4859 499.436 49.1979 499.436 49.9849C499.436 51.0342 499.792 51.9336 500.504 52.6831C501.216 53.4326 502.453 53.8823 504.214 54.0322L506.856 54.2571C509.929 54.5194 512.646 55.194 515.007 56.2807C517.368 57.3301 519.223 58.7728 520.572 60.6091C521.921 62.4454 522.595 64.6939 522.595 67.3547C522.595 70.0154 521.902 72.3389 520.516 74.3251C519.166 76.3112 517.218 77.8477 514.669 78.9345C512.159 80.0213 509.123 80.5647 505.563 80.5647ZM540.425 80.5647C537.802 80.5647 535.478 80.115 533.455 79.2156C531.431 78.3162 529.726 77.0982 528.339 75.5617C526.953 74.0253 525.885 72.3014 525.135 70.3902C524.423 68.4789 524.067 66.5115 524.067 64.4878V63.3636C524.067 61.265 524.423 59.26 525.135 57.3488C525.885 55.4001 526.934 53.6762 528.283 52.1772C529.67 50.6782 531.356 49.4977 533.342 48.6358C535.328 47.7364 537.577 47.2867 540.088 47.2867C543.423 47.2867 546.252 48.0362 548.576 49.5352C550.899 51.0342 552.679 53.0204 553.916 55.4938C555.153 57.9297 555.771 60.5904 555.771 63.476V66.7363H528.339V61.2275H549.869L546.327 63.7008C546.327 61.9395 546.084 60.4592 545.597 59.26C545.147 58.0233 544.454 57.0865 543.517 56.4494C542.617 55.8123 541.474 55.4938 540.088 55.4938C538.739 55.4938 537.558 55.8123 536.546 56.4494C535.572 57.049 534.822 57.9859 534.298 59.26C533.773 60.4967 533.511 62.0707 533.511 63.9819C533.511 65.7058 533.754 67.2048 534.242 68.4789C534.729 69.7156 535.478 70.6712 536.49 71.3458C537.502 72.0203 538.814 72.3576 540.425 72.3576C541.849 72.3576 543.011 72.114 543.91 71.6268C544.847 71.1397 545.503 70.4839 545.878 69.6594H555.209C554.759 71.758 553.86 73.6318 552.511 75.2807C551.199 76.9296 549.513 78.2225 547.452 79.1594C545.428 80.0962 543.086 80.5647 540.425 80.5647ZM573.643 80.5647C570.945 80.5647 568.602 80.1337 566.616 79.2718C564.63 78.3724 562.962 77.1732 561.613 75.6742C560.302 74.1752 559.309 72.47 558.634 70.5588C557.997 68.6476 557.678 66.6614 557.678 64.6002V63.476C557.678 61.3024 558.016 59.2413 558.69 57.2926C559.402 55.3439 560.433 53.62 561.782 52.121C563.131 50.622 564.799 49.4415 566.785 48.5796C568.771 47.7177 571.057 47.2867 573.643 47.2867C576.491 47.2867 579.002 47.8488 581.175 48.9731C583.349 50.0973 585.073 51.6526 586.347 53.6387C587.659 55.5875 588.389 57.836 588.539 60.3843H578.533C578.421 59.1476 577.953 58.0983 577.128 57.2364C576.341 56.3744 575.179 55.9435 573.643 55.9435C572.331 55.9435 571.244 56.2807 570.383 56.9553C569.558 57.6299 568.94 58.5667 568.527 59.7659C568.115 60.9651 567.909 62.3892 567.909 64.0381C567.909 65.5746 568.078 66.9424 568.415 68.1417C568.79 69.3409 569.389 70.2777 570.214 70.9523C571.076 71.5894 572.219 71.9079 573.643 71.9079C574.692 71.9079 575.573 71.7205 576.285 71.3458C576.997 70.971 577.559 70.4464 577.971 69.7718C578.383 69.0598 578.646 68.2353 578.758 67.2985H588.764C588.614 69.9217 587.865 72.2265 586.516 74.2126C585.204 76.1988 583.443 77.754 581.232 78.8783C579.021 80.0026 576.491 80.5647 573.643 80.5647ZM592.265 79.4404V48.4109H600.36V61.902H600.247C600.247 57.5549 601.147 54.1447 602.946 51.6713C604.782 49.1979 607.405 47.9612 610.815 47.9612H612.052V56.7304H609.691C607.405 56.7304 605.625 57.3488 604.351 58.5855C603.114 59.8222 602.496 61.6022 602.496 63.9257V79.4404H592.265ZM628.853 80.5647C626.229 80.5647 623.906 80.115 621.882 79.2156C619.859 78.3162 618.153 77.0982 616.767 75.5617C615.38 74.0253 614.312 72.3014 613.563 70.3902C612.851 68.4789 612.495 66.5115 612.495 64.4878V63.3636C612.495 61.265 612.851 59.26 613.563 57.3488C614.312 55.4001 615.362 53.6762 616.711 52.1772C618.097 50.6782 619.784 49.4977 621.77 48.6358C623.756 47.7364 626.005 47.2867 628.515 47.2867C631.851 47.2867 634.68 48.0362 637.003 49.5352C639.327 51.0342 641.107 53.0204 642.344 55.4938C643.58 57.9297 644.199 60.5904 644.199 63.476V66.7363H616.767V61.2275H638.296L634.755 63.7008C634.755 61.9395 634.511 60.4592 634.024 59.26C633.575 58.0233 632.881 57.0865 631.944 56.4494C631.045 55.8123 629.902 55.4938 628.515 55.4938C627.166 55.4938 625.986 55.8123 624.974 56.4494C624 57.049 623.25 57.9859 622.725 59.26C622.201 60.4967 621.938 62.0707 621.938 63.9819C621.938 65.7058 622.182 67.2048 622.669 68.4789C623.156 69.7156 623.906 70.6712 624.918 71.3458C625.93 72.0203 627.241 72.3576 628.853 72.3576C630.277 72.3576 631.438 72.114 632.338 71.6268C633.275 71.1397 633.931 70.4839 634.305 69.6594H643.637C643.187 71.758 642.287 73.6318 640.938 75.2807C639.627 76.9296 637.94 78.2225 635.879 79.1594C633.856 80.0962 631.513 80.5647 628.853 80.5647ZM662.689 79.8901C659.316 79.8901 656.618 79.4779 654.594 78.6535C652.608 77.829 651.165 76.4611 650.266 74.5499C649.366 72.6387 648.917 70.0529 648.917 66.7925L648.973 40.3163H658.417L658.36 67.0736C658.36 68.4602 658.716 69.5282 659.428 70.2777C660.178 70.9898 661.246 71.3458 662.633 71.3458H666.905V79.8901H662.689ZM644.42 55.831V48.4109H666.905V55.831H644.42ZM686.051 80.5647C683.315 80.5647 680.879 80.1525 678.743 79.328C676.607 78.5035 674.789 77.3606 673.29 75.899C671.829 74.4375 670.704 72.7511 669.917 70.8399C669.168 68.9286 668.793 66.8862 668.793 64.7127V63.3636C668.793 61.115 669.187 59.0164 669.974 57.0677C670.798 55.119 671.96 53.4139 673.459 51.9524C674.958 50.4908 676.775 49.3478 678.911 48.5234C681.048 47.6989 683.427 47.2867 686.051 47.2867C688.711 47.2867 691.091 47.6989 693.19 48.5234C695.326 49.3478 697.143 50.4908 698.642 51.9524C700.141 53.4139 701.284 55.119 702.071 57.0677C702.896 59.0164 703.308 61.115 703.308 63.3636V64.7127C703.308 66.8862 702.914 68.9286 702.127 70.8399C701.378 72.7511 700.254 74.4375 698.755 75.899C697.293 77.3606 695.494 78.5035 693.358 79.328C691.222 80.1525 688.786 80.5647 686.051 80.5647ZM686.051 72.0203C687.624 72.0203 688.917 71.6831 689.929 71.0085C690.978 70.334 691.765 69.3971 692.29 68.1979C692.815 66.9612 693.077 65.5746 693.077 64.0381C693.077 62.4267 692.796 61.0214 692.234 59.8222C691.709 58.5855 690.922 57.6111 689.873 56.8991C688.824 56.1871 687.55 55.831 686.051 55.831C684.551 55.831 683.277 56.1871 682.228 56.8991C681.179 57.6111 680.373 58.5855 679.811 59.8222C679.286 61.0214 679.024 62.4267 679.024 64.0381C679.024 65.5746 679.286 66.9612 679.811 68.1979C680.336 69.3971 681.123 70.334 682.172 71.0085C683.221 71.6831 684.514 72.0203 686.051 72.0203Z" fill="white"/>
<path d="M89.7601 294.534V156.292H138.618L167.024 229.201H170.812L199.028 156.292H248.833V294.534H213.989V176.555L219.48 176.934L183.878 266.696H151.874L116.083 176.934L121.953 176.555V294.534H89.7601ZM318.765 298.322C309.927 298.322 302.1 296.807 295.283 293.777C288.465 290.747 282.721 286.644 278.05 281.467C273.379 276.291 269.78 270.484 267.255 264.045C264.857 257.607 263.657 250.978 263.657 244.161V240.374C263.657 233.304 264.857 226.549 267.255 220.111C269.78 213.546 273.315 207.738 277.86 202.688C282.532 197.639 288.213 193.662 294.904 190.758C301.595 187.728 309.17 186.213 317.629 186.213C328.865 186.213 338.396 188.738 346.224 193.788C354.051 198.838 360.048 205.529 364.214 213.861C368.38 222.068 370.464 231.031 370.464 240.752V251.736H278.05V233.177H350.579L338.649 241.51C338.649 235.576 337.828 230.589 336.187 226.549C334.672 222.383 332.337 219.227 329.18 217.081C326.15 214.935 322.3 213.861 317.629 213.861C313.084 213.861 309.107 214.935 305.698 217.081C302.416 219.101 299.891 222.257 298.123 226.549C296.356 230.716 295.472 236.018 295.472 242.457C295.472 248.264 296.293 253.314 297.934 257.607C299.575 261.773 302.1 264.992 305.509 267.265C308.917 269.537 313.336 270.673 318.765 270.673C323.562 270.673 327.476 269.853 330.506 268.211C333.662 266.57 335.872 264.361 337.134 261.583H368.57C367.055 268.653 364.025 274.966 359.48 280.521C355.061 286.076 349.38 290.431 342.436 293.587C335.619 296.744 327.728 298.322 318.765 298.322ZM424.421 297.943C409.272 297.943 397.341 294.85 388.63 288.664C379.919 282.351 375.248 273.514 374.616 262.151H404.916C405.421 265.308 407.378 268.022 410.787 270.294C414.195 272.567 418.993 273.703 425.179 273.703C429.598 273.703 433.385 273.072 436.541 271.809C439.824 270.421 441.465 268.211 441.465 265.181C441.465 262.53 440.203 260.384 437.678 258.743C435.153 256.975 430.544 255.776 423.853 255.145L416.657 254.387C403.275 252.998 393.427 249.337 387.115 243.404C380.803 237.47 377.646 230.021 377.646 221.058C377.646 213.356 379.54 207.044 383.328 202.12C387.115 197.07 392.354 193.283 399.046 190.758C405.737 188.233 413.375 186.971 421.96 186.971C435.973 186.971 447.272 190.064 455.857 196.25C464.442 202.31 468.987 211.084 469.492 222.573H439.193C438.688 219.416 436.983 216.765 434.079 214.619C431.176 212.346 427.01 211.21 421.581 211.21C417.667 211.21 414.448 211.905 411.923 213.293C409.524 214.682 408.325 216.639 408.325 219.164C408.325 221.815 409.461 223.772 411.733 225.034C414.132 226.297 417.92 227.244 423.096 227.875L430.292 228.633C443.674 230.021 453.964 233.746 461.16 239.805C468.482 245.739 472.143 253.567 472.143 263.288C472.143 270.484 470.186 276.67 466.273 281.846C462.485 287.022 456.994 290.999 449.797 293.777C442.727 296.554 434.269 297.943 424.421 297.943ZM546.855 294.534V263.856H541.174V231.094C541.174 226.297 540.038 222.762 537.765 220.489C535.619 218.091 532.021 216.891 526.971 216.891C524.572 216.891 521.037 216.955 516.366 217.081C511.695 217.207 506.771 217.396 501.595 217.649C496.419 217.901 491.685 218.154 487.392 218.406V189.622C490.422 189.369 494.02 189.117 498.187 188.864C502.353 188.612 506.645 188.422 511.064 188.296C515.609 188.17 519.775 188.107 523.562 188.107C534.294 188.107 543.383 189.685 550.832 192.841C558.407 195.997 564.151 200.732 568.065 207.044C572.105 213.356 574.125 221.373 574.125 231.094V294.534H546.855ZM513.715 297.185C506.393 297.185 499.891 295.86 494.21 293.209C488.529 290.557 484.047 286.77 480.764 281.846C477.608 276.796 476.03 270.799 476.03 263.856C476.03 256.028 478.113 249.716 482.279 244.919C486.445 239.995 492.19 236.397 499.512 234.124C506.835 231.852 515.23 230.716 524.699 230.716H544.962V248.517H524.699C520.027 248.517 516.429 249.716 513.904 252.115C511.379 254.387 510.117 257.48 510.117 261.394C510.117 265.181 511.379 268.275 513.904 270.673C516.429 272.946 520.027 274.082 524.699 274.082C527.729 274.082 530.38 273.577 532.652 272.567C535.051 271.431 537.008 269.537 538.523 266.886C540.038 264.235 540.922 260.573 541.174 255.902L549.128 263.477C548.497 270.673 546.729 276.796 543.825 281.846C541.048 286.77 537.134 290.557 532.084 293.209C527.161 295.86 521.037 297.185 513.715 297.185ZM667.431 297.943C660.108 297.943 653.417 296.617 647.357 293.966C641.424 291.315 636.248 287.654 631.829 282.982C627.536 278.185 624.191 272.567 621.792 266.128C619.52 259.69 618.383 252.683 618.383 245.108V240.563C618.383 232.988 619.456 225.981 621.603 219.543C623.875 212.978 627.095 207.297 631.261 202.499C635.427 197.575 640.477 193.788 646.411 191.137C652.344 188.359 658.972 186.971 666.295 186.971C674.753 186.971 681.949 188.864 687.883 192.652C693.943 196.313 698.551 201.678 701.707 208.748C704.99 215.818 706.757 224.403 707.01 234.503L699.056 228.633V156.292H733.522V294.534H706.252V252.115H710.04C709.787 261.457 707.893 269.6 704.359 276.544C700.824 283.361 695.9 288.664 689.587 292.451C683.401 296.112 676.016 297.943 667.431 297.943ZM676.71 269.537C680.876 269.537 684.664 268.59 688.072 266.696C691.607 264.803 694.448 262.025 696.594 258.364C698.74 254.703 699.814 250.284 699.814 245.108V238.669C699.814 233.619 698.677 229.39 696.405 225.981C694.259 222.573 691.418 219.984 687.883 218.217C684.474 216.323 680.75 215.376 676.71 215.376C672.165 215.376 668.062 216.576 664.401 218.975C660.866 221.247 658.025 224.466 655.879 228.633C653.859 232.672 652.849 237.407 652.849 242.835C652.849 248.264 653.859 252.998 655.879 257.038C658.025 260.952 660.866 264.045 664.401 266.318C668.062 268.464 672.165 269.537 676.71 269.537ZM801.887 298.322C793.05 298.322 785.222 296.807 778.405 293.777C771.587 290.747 765.843 286.644 761.172 281.467C756.501 276.291 752.903 270.484 750.378 264.045C747.979 257.607 746.779 250.978 746.779 244.161V240.374C746.779 233.304 747.979 226.549 750.378 220.111C752.903 213.546 756.437 207.738 760.982 202.688C765.654 197.639 771.335 193.662 778.026 190.758C784.717 187.728 792.292 186.213 800.751 186.213C811.987 186.213 821.519 188.738 829.346 193.788C837.173 198.838 843.17 205.529 847.336 213.861C851.503 222.068 853.586 231.031 853.586 240.752V251.736H761.172V233.177H833.702L821.771 241.51C821.771 235.576 820.95 230.589 819.309 226.549C817.794 222.383 815.459 219.227 812.302 217.081C809.272 214.935 805.422 213.861 800.751 213.861C796.206 213.861 792.229 214.935 788.82 217.081C785.538 219.101 783.013 222.257 781.245 226.549C779.478 230.716 778.594 236.018 778.594 242.457C778.594 248.264 779.415 253.314 781.056 257.607C782.697 261.773 785.222 264.992 788.631 267.265C792.04 269.537 796.458 270.673 801.887 270.673C806.684 270.673 810.598 269.853 813.628 268.211C816.784 266.57 818.994 264.361 820.256 261.583H851.692C850.177 268.653 847.147 274.966 842.602 280.521C838.183 286.076 832.502 290.431 825.558 293.587C818.741 296.744 810.851 298.322 801.887 298.322ZM78.6056 465.322C66.107 465.322 55.3759 463.175 46.4122 458.883C37.4486 454.464 30.0631 448.72 24.2557 441.65C18.4482 434.454 14.1558 426.69 11.3783 418.357C8.60085 410.025 7.21212 401.945 7.21212 394.118V389.951C7.21212 381.24 8.60085 372.718 11.3783 364.386C14.282 355.927 18.6376 348.289 24.445 341.472C30.3787 334.655 37.7642 329.226 46.6016 325.186C55.439 321.146 65.7914 319.126 77.6587 319.126C90.2836 319.126 101.457 321.525 111.178 326.322C121.025 330.993 128.916 337.621 134.849 346.206C140.783 354.665 144.255 364.512 145.265 375.748H110.041C109.158 370.951 107.264 366.785 104.36 363.25C101.457 359.715 97.7322 357 93.1873 355.107C88.6423 353.087 83.4662 352.077 77.6587 352.077C72.2301 352.077 67.3064 353.024 62.8877 354.917C58.5952 356.811 54.934 359.525 51.9041 363.06C49.0003 366.469 46.7279 370.635 45.0866 375.559C43.5717 380.483 42.8142 386.038 42.8142 392.224C42.8142 398.41 43.5717 403.965 45.0866 408.889C46.7279 413.812 49.0635 418.042 52.0934 421.577C55.2496 425.112 59.0371 427.826 63.4558 429.72C67.8745 431.487 72.9244 432.371 78.6056 432.371C87.443 432.371 94.8916 430.225 100.952 425.932C107.138 421.64 110.862 415.895 112.125 408.699H147.348C146.212 419.052 142.74 428.52 136.932 437.105C131.125 445.69 123.298 452.571 113.45 457.747C103.603 462.797 91.9879 465.322 78.6056 465.322ZM210.742 465.322C201.526 465.322 193.32 463.933 186.123 461.155C178.927 458.378 172.804 454.527 167.754 449.604C162.831 444.68 159.043 438.999 156.392 432.56C153.867 426.122 152.604 419.241 152.604 411.919V407.374C152.604 399.799 153.93 392.729 156.581 386.164C159.359 379.599 163.272 373.855 168.322 368.931C173.372 364.007 179.495 360.157 186.691 357.379C193.888 354.602 201.904 353.213 210.742 353.213C219.705 353.213 227.722 354.602 234.792 357.379C241.988 360.157 248.111 364.007 253.161 368.931C258.211 373.855 262.062 379.599 264.713 386.164C267.49 392.729 268.879 399.799 268.879 407.374V411.919C268.879 419.241 267.554 426.122 264.902 432.56C262.377 438.999 258.59 444.68 253.54 449.604C248.616 454.527 242.556 458.378 235.36 461.155C228.164 463.933 219.958 465.322 210.742 465.322ZM210.742 436.537C216.044 436.537 220.4 435.401 223.809 433.128C227.343 430.856 229.995 427.7 231.762 423.66C233.53 419.493 234.413 414.822 234.413 409.646C234.413 404.217 233.467 399.483 231.573 395.443C229.805 391.277 227.154 387.994 223.619 385.596C220.084 383.197 215.792 381.998 210.742 381.998C205.692 381.998 201.399 383.197 197.864 385.596C194.33 387.994 191.615 391.277 189.721 395.443C187.954 399.483 187.07 404.217 187.07 409.646C187.07 414.822 187.954 419.493 189.721 423.66C191.489 427.7 194.14 430.856 197.675 433.128C201.21 435.401 205.566 436.537 210.742 436.537ZM282.067 461.534V357H309.337V402.071H307.822C307.822 391.214 309.148 382.25 311.799 375.18C314.576 367.984 318.616 362.619 323.919 359.084C329.221 355.422 335.723 353.592 343.424 353.592H344.939C352.766 353.592 359.268 355.422 364.444 359.084C369.747 362.619 373.724 367.984 376.375 375.18C379.152 382.25 380.541 391.214 380.541 402.071H372.587C372.587 391.214 373.913 382.25 376.564 375.18C379.342 367.984 383.382 362.619 388.684 359.084C393.986 355.422 400.488 353.592 408.189 353.592H409.704C417.532 353.592 424.097 355.422 429.399 359.084C434.828 362.619 438.931 367.984 441.708 375.18C444.612 382.25 446.064 391.214 446.064 402.071V461.534H411.598V401.124C411.598 396.327 410.272 392.35 407.621 389.194C405.096 385.911 401.435 384.27 396.638 384.27C391.84 384.27 388.053 385.911 385.275 389.194C382.624 392.35 381.298 396.453 381.298 401.503V461.534H346.833V401.124C346.833 396.327 345.507 392.35 342.856 389.194C340.331 385.911 336.67 384.27 331.872 384.27C327.075 384.27 323.287 385.911 320.51 389.194C317.859 392.35 316.533 396.453 316.533 401.503V461.534H282.067ZM526.79 461.534V430.856H521.109V398.094C521.109 393.297 519.972 389.762 517.7 387.489C515.554 385.091 511.956 383.891 506.906 383.891C504.507 383.891 500.972 383.955 496.301 384.081C491.63 384.207 486.706 384.396 481.53 384.649C476.354 384.901 471.619 385.154 467.327 385.406V356.622C470.357 356.369 473.955 356.117 478.121 355.864C482.287 355.612 486.58 355.422 490.998 355.296C495.543 355.17 499.71 355.107 503.497 355.107C514.228 355.107 523.318 356.685 530.767 359.841C538.342 362.997 544.086 367.732 548 374.044C552.04 380.356 554.06 388.373 554.06 398.094V461.534H526.79ZM493.65 464.185C486.327 464.185 479.825 462.86 474.144 460.209C468.463 457.557 463.981 453.77 460.699 448.846C457.543 443.796 455.965 437.799 455.965 430.856C455.965 423.028 458.048 416.716 462.214 411.919C466.38 406.995 472.124 403.397 479.447 401.124C486.769 398.852 495.165 397.716 504.633 397.716H524.896V415.517H504.633C499.962 415.517 496.364 416.716 493.839 419.115C491.314 421.387 490.052 424.48 490.052 428.394C490.052 432.181 491.314 435.275 493.839 437.673C496.364 439.946 499.962 441.082 504.633 441.082C507.663 441.082 510.314 440.577 512.587 439.567C514.986 438.431 516.943 436.537 518.457 433.886C519.972 431.235 520.856 427.573 521.109 422.902L529.062 430.477C528.431 437.673 526.664 443.796 523.76 448.846C520.982 453.77 517.069 457.557 512.019 460.209C507.095 462.86 500.972 464.185 493.65 464.185ZM571.408 461.534V357H598.678V401.882H597.163C597.163 391.024 598.551 382.061 601.329 374.991C604.106 367.795 608.209 362.429 613.638 358.894C619.193 355.359 625.884 353.592 633.711 353.592H635.226C647.094 353.592 656.247 357.569 662.685 365.522C669.25 373.35 672.533 385.406 672.533 401.692V461.534H638.067V400.746C638.067 395.948 636.615 392.034 633.711 389.004C630.934 385.848 627.083 384.27 622.16 384.27C617.236 384.27 613.259 385.848 610.229 389.004C607.326 392.034 605.874 396.074 605.874 401.124V461.534H571.408ZM732.99 464.943C725.668 464.943 718.977 463.617 712.917 460.966C706.983 458.315 701.807 454.654 697.388 449.982C693.096 445.185 689.75 439.567 687.351 433.128C685.079 426.69 683.943 419.683 683.943 412.108V407.563C683.943 399.988 685.016 392.981 687.162 386.543C689.434 379.978 692.654 374.297 696.82 369.499C700.986 364.575 706.036 360.788 711.97 358.137C717.903 355.359 724.531 353.971 731.854 353.971C740.312 353.971 747.509 355.864 753.442 359.652C759.502 363.313 764.11 368.678 767.267 375.748C770.549 382.818 772.316 391.403 772.569 401.503L764.615 395.633V323.292H799.081V461.534H771.811V419.115H775.599C775.346 428.457 773.453 436.6 769.918 443.544C766.383 450.361 761.459 455.664 755.147 459.451C748.961 463.112 741.575 464.943 732.99 464.943ZM742.269 436.537C746.436 436.537 750.223 435.59 753.632 433.696C757.167 431.803 760.007 429.025 762.153 425.364C764.3 421.703 765.373 417.284 765.373 412.108V405.669C765.373 400.619 764.237 396.39 761.964 392.981C759.818 389.573 756.977 386.984 753.442 385.217C750.034 383.323 746.309 382.376 742.269 382.376C737.724 382.376 733.621 383.576 729.96 385.975C726.425 388.247 723.585 391.466 721.438 395.633C719.418 399.672 718.408 404.407 718.408 409.835C718.408 415.264 719.418 419.998 721.438 424.038C723.585 427.952 726.425 431.045 729.96 433.318C733.621 435.464 737.724 436.537 742.269 436.537ZM870.476 465.322C861.26 465.322 853.054 463.933 845.858 461.155C838.661 458.378 832.538 454.527 827.488 449.604C822.565 444.68 818.777 438.999 816.126 432.56C813.601 426.122 812.339 419.241 812.339 411.919V407.374C812.339 399.799 813.664 392.729 816.315 386.164C819.093 379.599 823.007 373.855 828.056 368.931C833.106 364.007 839.229 360.157 846.426 357.379C853.622 354.602 861.639 353.213 870.476 353.213C879.44 353.213 887.456 354.602 894.526 357.379C901.722 360.157 907.845 364.007 912.895 368.931C917.945 373.855 921.796 379.599 924.447 386.164C927.225 392.729 928.613 399.799 928.613 407.374V411.919C928.613 419.241 927.288 426.122 924.637 432.56C922.112 438.999 918.324 444.68 913.274 449.604C908.35 454.527 902.291 458.378 895.094 461.155C887.898 463.933 879.692 465.322 870.476 465.322ZM870.476 436.537C875.778 436.537 880.134 435.401 883.543 433.128C887.078 430.856 889.729 427.7 891.496 423.66C893.264 419.493 894.148 414.822 894.148 409.646C894.148 404.217 893.201 399.483 891.307 395.443C889.539 391.277 886.888 387.994 883.353 385.596C879.818 383.197 875.526 381.998 870.476 381.998C865.426 381.998 861.134 383.197 857.599 385.596C854.064 387.994 851.349 391.277 849.456 395.443C847.688 399.483 846.804 404.217 846.804 409.646C846.804 414.822 847.688 419.493 849.456 423.66C851.223 427.7 853.874 430.856 857.409 433.128C860.944 435.401 865.3 436.537 870.476 436.537Z" fill="white"/>
<defs>
<clipPath id="clip0_61_13">
<rect width="57.3107" height="57.3107" fill="white" transform="translate(229.517 31.2849)"/>
</clipPath>
</defs>
</svg>
